<svg xmlns="http://www.w3.org/2000/svg" width="24" height="24" viewBox="0 0 24 24" fill="currentColor"><path d="M12.012 2.012C6.49 2.012 2.012 6.49 2.012 12.012c0 1.763.456 3.42 1.252 4.864L2.012 21.988l5.29-1.33c1.385.748 2.964 1.176 4.636 1.176 5.523 0 10.001-4.478 10.001-10.001S17.535 2.012 12.012 2.012zm5.728 14.17c-.244.693-1.42 1.267-1.956 1.343-.497.072-1.15.13-3.325-.772-2.78-1.156-4.576-3.98-4.714-4.166-.14-.186-1.132-1.503-1.132-2.863s.715-2.028.97-2.3c.254-.272.553-.34.737-.34.185 0 .37 0 .53.008.17.008.4.004.62.535.228.553.778 1.9.846 2.04.068.14.113.303.023.486-.092.185-.14.298-.276.457-.137.16-.287.356-.41.48s-.26.26-.11.52c.15.26.666 1.097 1.43 1.777.983.877 1.812 1.147 2.072 1.277.26.13.41.11.564-.068.152-.178.653-.76.828-1.018.174-.26.35-.22.587-.132.238.09 1.504.71 1.764.84.26.13.435.195.498.303.064.11.064.634-.18 1.327z"/></svg>
